<svg width="65" height="72" viewBox="0 0 65 72" fill="none" xmlns="http://www.w3.org/2000/svg">
<path d="M60.7115 35.8719C60.7115 31.7638 60.7155 27.6571 60.7062 23.549C60.7049 23.0429 60.6876 22.5276 60.5892 22.0348C60.2183 20.1607 59.1868 18.7369 57.5425 17.7647C56.7609 17.3025 55.9699 16.8562 55.183 16.402C50.3709 13.626 45.5576 10.8501 40.7442 8.07419C39.0214 7.0807 37.3 6.08588 35.5746 5.09505C34.6055 4.53986 33.5554 4.27422 32.4414 4.28087C31.3261 4.28883 30.2866 4.59166 29.3202 5.14685C28.758 5.47092 28.1957 5.79368 27.6347 6.11776C23.2906 8.62539 18.9464 11.133 14.6036 13.6406C12.2814 14.9808 9.95909 16.3196 7.63681 17.6584C5.44747 18.9202 4.31358 20.8049 4.28832 23.3378C4.27503 24.5916 4.27901 25.8454 4.27901 27.0992C4.27769 34.2223 4.27768 41.3468 4.283 48.4699C4.283 48.8351 4.30826 49.207 4.37605 49.5656C4.75091 51.5247 5.79839 53.0136 7.53445 54.0137C11.8321 56.4908 16.1283 58.9732 20.4273 61.4516C23.4049 63.169 26.3812 64.889 29.3615 66.601C30.6775 67.3581 32.0932 67.5773 33.5873 67.3382C34.4327 67.2027 35.1971 66.8653 35.9335 66.439C39.807 64.1983 43.6846 61.9643 47.5608 59.7276C50.8561 57.8257 54.1515 55.9224 57.4494 54.0244C58.5248 53.4054 59.3796 52.5727 59.9645 51.4742C60.5002 50.4701 60.7195 49.3969 60.7168 48.26C60.7035 44.1307 60.7115 40.0013 60.7115 35.8719ZM64.9985 35.8627C64.9985 39.6786 65.0038 43.4931 64.9945 47.309C64.9932 48.1285 64.9892 48.9533 64.9054 49.7675C64.7034 51.7412 63.9404 53.4984 62.7188 55.0564C61.8401 56.1774 60.766 57.0646 59.5298 57.7739C55.5087 60.0823 51.4955 62.4053 47.4797 64.723C44.2961 66.5599 41.1124 68.3941 37.9314 70.235C36.6619 70.9681 35.31 71.4649 33.8531 71.6469C31.4671 71.943 29.2285 71.4768 27.1455 70.2775C23.2693 68.0421 19.3944 65.8015 15.5195 63.5648C12.1298 61.6084 8.73746 59.6599 5.35175 57.6982C2.63999 56.1269 0.959769 53.788 0.24328 50.7504C0.0837651 50.077 0.00799272 49.389 0.00799272 48.6943C0.00666343 40.2855 0.00799203 31.8754 1.62685e-05 23.4666C-0.00264232 21.7413 0.320378 20.0957 1.09403 18.547C2.04181 16.6503 3.42162 15.1521 5.26003 14.0856C7.29917 12.9035 9.34096 11.728 11.3814 10.5499C15.5953 8.11934 19.8078 5.69008 24.0217 3.25948C25.0798 2.64851 26.1353 2.03622 27.1947 1.4279C29.0451 0.366678 31.0403 -0.110144 33.1672 0.0213474C34.8568 0.126275 36.4293 0.628331 37.8955 1.4797C40.4185 2.9447 42.9495 4.39774 45.4778 5.8561C49.0536 7.92011 52.6294 9.98546 56.2052 12.0481C57.3657 12.7189 58.5381 13.371 59.688 14.059C62.6802 15.8468 64.4269 18.4713 64.9054 21.9246C64.9719 22.4041 64.9932 22.8942 64.9945 23.379C65.0011 27.5402 64.9985 31.7014 64.9985 35.8627Z" fill="#DAB177"/>
<path d="M40.0095 33.2776C39.9284 33.3493 39.8713 33.3971 39.8168 33.4476C39.1322 34.0984 38.3851 34.6682 37.5649 35.137C35.7451 36.173 33.811 36.6791 31.7134 36.3244C29.863 36.011 28.3755 35.0972 27.3546 33.506C26.2314 31.7568 25.9868 29.8455 26.46 27.8426C26.8854 26.0442 27.8797 24.6403 29.4882 23.696C30.3615 23.1833 31.3159 22.9296 32.3209 22.8526C33.5638 22.7583 34.7349 22.9814 35.7956 23.6561C36.8245 24.3109 37.4692 25.2619 37.8587 26.4002C37.9783 26.7482 37.977 26.7495 38.3545 26.7495C39.3502 26.7455 40.3445 26.7415 41.3401 26.7362C41.4438 26.7362 41.5488 26.7229 41.6831 26.7136C41.7057 24.3601 41.711 22.0344 41.6804 19.7167C41.1939 19.641 38.2136 19.6622 37.985 19.7393C37.9318 20.0926 38.0156 20.4605 37.9238 20.8709C37.8069 20.7846 37.7231 20.7235 37.6394 20.6624C36.5906 19.8987 35.4261 19.4019 34.1433 19.2027C32.394 18.9331 30.6686 19.0606 28.9844 19.5985C26.1277 20.5083 24.0088 22.2987 22.7127 25.0042C21.636 27.2555 21.4007 29.6303 21.959 32.0556C22.7486 35.481 24.7798 37.9156 28.0246 39.281C30.5064 40.3263 33.0892 40.398 35.696 39.8375C38.2442 39.2903 40.4761 38.1042 42.4341 36.3922C42.5392 36.3005 42.6415 36.2076 42.7665 36.096C41.8426 35.1517 40.9374 34.2259 40.0095 33.2776Z" fill="#DAB177"/>
<path d="M41.6433 48.5049H23.3336V52.7179H41.6433V48.5049Z" fill="#DAB177"/>
<path d="M40.0095 33.2776C40.9374 34.2259 41.8426 35.1517 42.7665 36.096C42.6415 36.2076 42.5392 36.3005 42.4341 36.3922C40.4761 38.1042 38.2442 39.2903 35.696 39.8375C33.0892 40.398 30.5064 40.3263 28.0246 39.281C24.7798 37.9156 22.7486 35.481 21.959 32.0556C21.4007 29.6303 21.636 27.2555 22.7127 25.0042C24.0088 22.2987 26.1277 20.5083 28.9844 19.5985C30.6686 19.0606 32.394 18.9331 34.1433 19.2027C35.4261 19.4019 36.5906 19.8987 37.6394 20.6624C37.7231 20.7235 37.8069 20.7846 37.9238 20.8709C38.0156 20.4605 37.9318 20.0926 37.985 19.7393C38.2136 19.6622 41.1939 19.641 41.6804 19.7167C41.711 22.0344 41.7057 24.3601 41.6831 26.7136C41.5488 26.7229 41.4438 26.7362 41.3401 26.7362C40.3445 26.7415 39.3502 26.7455 38.3545 26.7495C37.977 26.7495 37.9783 26.7482 37.8587 26.4002C37.4692 25.2619 36.8245 24.3109 35.7956 23.6561C34.7349 22.9814 33.5638 22.7583 32.3209 22.8526C31.3159 22.9296 30.3615 23.1833 29.4882 23.696C27.8797 24.6403 26.8854 26.0442 26.46 27.8426C25.9868 29.8455 26.2314 31.7568 27.3546 33.506C28.3755 35.0972 29.863 36.011 31.7134 36.3244C33.811 36.6791 35.7451 36.173 37.5649 35.137C38.3851 34.6682 39.1322 34.0984 39.8168 33.4476C39.8713 33.3971 39.9284 33.3493 40.0095 33.2776Z" fill="#DAB177"/>
<path d="M23.3331 52.7173V48.5215C23.5777 48.4538 41.2174 48.4352 41.6428 48.5043V52.7173H23.3331Z" fill="#DAB177"/>
</svg>
