<svg width="51" height="50" viewBox="0 0 51 50" fill="none" xmlns="http://www.w3.org/2000/svg">
<path fill-rule="evenodd" clip-rule="evenodd" d="M23.3302 2.10101C11.9723 3.16376 3.01393 12.4855 2.52135 24H15.5313C15.8831 15.9988 18.618 8.32913 23.3302 2.10101ZM25.5 0C11.6929 0 0.5 11.1929 0.5 25C0.5 38.8071 11.6929 50 25.5 50C39.3071 50 50.5 38.8071 50.5 25C50.5 11.1929 39.3071 0 25.5 0ZM27.6698 2.10101C32.382 8.32913 35.1169 15.9988 35.4687 24H48.4787C47.9861 12.4855 39.0277 3.16376 27.6698 2.10101ZM33.4667 24C33.1013 16.1043 30.2948 8.56842 25.5 2.56854C20.7052 8.56842 17.8987 16.1043 17.5333 24H33.4667ZM17.5333 26H33.4667C33.1013 33.8957 30.2948 41.4316 25.5 47.4315C20.7052 41.4316 17.8987 33.8957 17.5333 26ZM15.5313 26H2.52135C3.01393 37.5145 11.9723 46.8362 23.3302 47.899C18.618 41.6709 15.8831 34.0012 15.5313 26ZM27.6698 47.899C32.382 41.6709 35.1169 34.0012 35.4687 26H48.4787C47.9861 37.5145 39.0277 46.8362 27.6698 47.899Z" fill="#D8B377"/>
</svg>
